<?xml version="1.0" standalone="no"?>
<!DOCTYPE svg PUBLIC "-//W3C//DTD SVG 20010904//EN"
 "http://www.w3.org/TR/2001/REC-SVG-20010904/DTD/svg10.dtd">
<svg version="1.0" xmlns="http://www.w3.org/2000/svg"
 width="100.000000pt" height="100.000000pt" viewBox="0 0 100.000000 100.000000"
 preserveAspectRatio="xMidYMid meet">
<metadata>
Created by potrace 1.13, written by Peter Selinger 2001-2015
</metadata>
<g transform="translate(0.000000,100.000000) scale(0.100000,-0.100000)"
fill="#000000" stroke="none">
<path d="M276 833 c-3 -3 -6 -24 -6 -45 0 -33 3 -38 23 -38 52 -1 52 -2 52
-250 0 -248 0 -249 -53 -250 -21 0 -23 -4 -20 -42 l3 -43 50 3 c54 3 93 25
112 63 9 17 13 94 13 269 0 261 -3 278 -50 311 -26 17 -112 33 -124 22z"/>
<path d="M540 500 l0 -341 48 3 47 3 0 335 0 335 -47 3 -48 3 0 -341z"/>
<path d="M120 495 l0 -335 50 0 50 0 0 335 0 335 -50 0 -50 0 0 -335z"/>
<path d="M784 807 c-25 -22 -28 -32 -37 -136 -9 -104 -12 -114 -33 -123 -19
-9 -24 -19 -24 -48 0 -29 5 -39 24 -48 21 -9 24 -19 33 -123 9 -102 12 -114
36 -135 26 -23 98 -41 117 -29 5 3 10 24 10 46 0 31 -4 39 -19 39 -32 0 -44
29 -51 122 -6 78 -10 94 -29 110 l-23 18 23 18 c19 16 23 32 29 110 7 93 19
122 51 122 15 0 19 8 19 40 l0 40 -49 0 c-38 0 -57 -6 -77 -23z"/>
</g>
</svg>
