<?xml version="1.0" encoding="utf-8"?>
<!-- Generator: Adobe Illustrator 19.2.1, SVG Export Plug-In . SVG Version: 6.00 Build 0)  -->
<svg version="1.1" id="Layer_1" xmlns="http://www.w3.org/2000/svg" xmlns:xlink="http://www.w3.org/1999/xlink" x="0px" y="0px"
	 viewBox="0 0 612 792" style="enable-background:new 0 0 612 792;" xml:space="preserve">
<style type="text/css">
	.st0{fill:#27AAE1;}
	.st1{fill:#FFFFFF;}
	.st2{font-family:'Roboto-Regular';}
	.st3{font-size:36px;}
</style>
<polyline class="st0" points="417.3,327.7 417.3,463.7 194.3,463.7 194.3,327.7 "/>
<g>
	
		<ellipse transform="matrix(0.9376 -0.3476 0.3476 0.9376 -115.3047 128.3369)" class="st1" cx="300" cy="385.5" rx="6.8" ry="9.2"/>
	
		<ellipse transform="matrix(0.9376 -0.3476 0.3476 0.9376 -113.4957 122.6534)" class="st1" cx="285.1" cy="377.6" rx="6.8" ry="9.2"/>
	
		<ellipse transform="matrix(0.9376 -0.3476 0.3476 0.9376 -115.6521 118.129)" class="st1" cx="271.4" cy="381.4" rx="6.8" ry="9.2"/>
	
		<ellipse transform="matrix(0.9376 -0.3476 0.3476 0.9376 -121.8915 117.1602)" class="st1" cx="265.6" cy="398.3" rx="6.8" ry="9.2"/>
	<path class="st1" d="M282.1,390c-5.8,2.2-8.3,19-7.4,21.2c1.3,3.5,5.2,5.3,8.7,4c1.8-0.7,5.6-4,6.5-4.3c0.9-0.3,6.3,0.1,8.4-0.7
		c3.5-1.3,5.3-5.2,4-8.7C301.3,399.1,287.9,387.8,282.1,390z"/>
</g>
<text transform="matrix(1 0 0 1 207.2488 404.6279)" class="st1 st2 st3">  W      L K R</text>
</svg>
